<svg width="28" height="28" viewBox="0 0 28 28" fill="none" xmlns="http://www.w3.org/2000/svg">
<g id="AlarmFill" clip-path="url(#clip0_8_784)">
<path id="Vector" d="M10.5002 0.875C10.5002 0.642936 10.5923 0.420376 10.7564 0.256282C10.9205 0.0921872 11.1431 0 11.3752 0L16.6252 0C16.8572 0 17.0798 0.0921872 17.2439 0.256282C17.408 0.420376 17.5002 0.642936 17.5002 0.875C17.5002 1.10706 17.408 1.32962 17.2439 1.49372C17.0798 1.65781 16.8572 1.75 16.6252 1.75H15.7502V3.6225C18.1333 3.96651 20.3623 5.00512 22.1586 6.60859C23.9549 8.21205 25.2389 10.3093 25.8501 12.6382C26.4614 14.9672 26.3729 17.4247 25.5956 19.7036C24.8183 21.9826 23.3867 23.982 21.4797 25.452L22.5314 26.5055C22.6957 26.6696 22.7881 26.8922 22.7883 27.1244C22.7884 27.3566 22.6964 27.5793 22.5323 27.7436C22.3682 27.9079 22.1456 28.0003 21.9134 28.0005C21.6812 28.0007 21.4585 27.9086 21.2942 27.7445L19.9887 26.439C18.1599 27.4655 16.0973 28.0031 14.0002 28C11.903 28.0031 9.84043 27.4655 8.01165 26.439L6.70615 27.7445C6.6248 27.8257 6.52824 27.8902 6.42199 27.9341C6.31574 27.978 6.20188 28.0006 6.08691 28.0005C5.97194 28.0004 5.85811 27.9777 5.75192 27.9336C5.64574 27.8895 5.54927 27.825 5.46803 27.7436C5.38679 27.6623 5.32237 27.5657 5.27845 27.4595C5.23453 27.3532 5.21196 27.2394 5.21204 27.1244C5.21221 26.8922 5.3046 26.6696 5.4689 26.5055L6.5224 25.452C4.61541 23.9821 3.1838 21.9828 2.40641 19.704C1.62903 17.4252 1.54034 14.9679 2.15141 12.6389C2.76249 10.31 4.04625 8.21275 5.84232 6.60917C7.63838 5.0056 9.86714 3.96678 12.2502 3.6225V1.75H11.3752C11.1431 1.75 10.9205 1.65781 10.7564 1.49372C10.5923 1.32962 10.5002 1.10706 10.5002 0.875ZM14.8752 9.625C14.8752 9.39294 14.783 9.17038 14.6189 9.00628C14.4548 8.84219 14.2322 8.75 14.0002 8.75C13.7681 8.75 13.5455 8.84219 13.3814 9.00628C13.2173 9.17038 13.1252 9.39294 13.1252 9.625V15.5085L10.6244 19.6735C10.5049 19.8726 10.4694 20.111 10.5257 20.3363C10.5819 20.5616 10.7254 20.7554 10.9245 20.8749C11.1236 20.9944 11.3621 21.0299 11.5874 20.9736C11.8127 20.9173 12.0064 20.7739 12.1259 20.5747L14.7509 16.1997C14.8323 16.0638 14.8752 15.9084 14.8752 15.75V9.625ZM1.50515 9.42725C1.05236 9.03339 0.685436 8.55058 0.427204 8.00885C0.168972 7.46713 0.0249543 6.87806 0.00410585 6.2783C-0.0167426 5.67853 0.0860244 5.08089 0.306016 4.52254C0.526008 3.96419 0.858519 3.45707 1.28287 3.03272C1.70723 2.60837 2.21435 2.27585 2.7727 2.05586C3.33105 1.83587 3.92869 1.7331 4.52845 1.75395C5.12822 1.7748 5.71728 1.91882 6.25901 2.17705C6.80073 2.43528 7.28354 2.8022 7.6774 3.255C5.01732 4.60556 2.85571 6.76716 1.50515 9.42725ZM20.3229 3.255C20.7168 2.8022 21.1996 2.43528 21.7413 2.17705C22.283 1.91882 22.8721 1.7748 23.4719 1.75395C24.0716 1.7331 24.6693 1.83587 25.2276 2.05586C25.786 2.27585 26.2931 2.60837 26.7174 3.03272C27.1418 3.45707 27.4743 3.96419 27.6943 4.52254C27.9143 5.08089 28.0171 5.67853 27.9962 6.2783C27.9754 6.87806 27.8313 7.46713 27.5731 8.00885C27.3149 8.55058 26.948 9.03339 26.4952 9.42725C25.1446 6.76716 22.983 4.60556 20.3229 3.255Z" fill="white"/>
</g>
<defs>
<clipPath id="clip0_8_784">
<rect width="28" height="28" fill="white"/>
</clipPath>
</defs>
</svg>
