<svg width="28" height="28" viewBox="0 0 28 28" fill="none" xmlns="http://www.w3.org/2000/svg">
<g id="FileEarmarkCheckFill" clip-path="url(#clip0_8_778)">
<path id="Vector" d="M16.2628 0H7C6.07174 0 5.1815 0.368749 4.52513 1.02513C3.86875 1.6815 3.5 2.57174 3.5 3.5V24.5C3.5 25.4283 3.86875 26.3185 4.52513 26.9749C5.1815 27.6313 6.07174 28 7 28H21C21.9283 28 22.8185 27.6313 23.4749 26.9749C24.1313 26.3185 24.5 25.4283 24.5 24.5V8.23725C24.4999 7.77316 24.3155 7.32811 23.9872 7L17.5 0.51275C17.1719 0.184539 16.7268 9.91155e-05 16.2628 0V0ZM16.625 6.125V2.625L21.875 7.875H18.375C17.9109 7.875 17.4658 7.69063 17.1376 7.36244C16.8094 7.03425 16.625 6.58913 16.625 6.125ZM18.9945 13.7445L13.7445 18.9945C13.6632 19.076 13.5667 19.1406 13.4604 19.1847C13.3541 19.2289 13.2401 19.2516 13.125 19.2516C13.0099 19.2516 12.8959 19.2289 12.7896 19.1847C12.6833 19.1406 12.5868 19.076 12.5055 18.9945L9.8805 16.3695C9.79915 16.2881 9.73461 16.1916 9.69058 16.0853C9.64656 15.979 9.62389 15.8651 9.62389 15.75C9.62389 15.6349 9.64656 15.521 9.69058 15.4147C9.73461 15.3084 9.79915 15.2119 9.8805 15.1305C10.0448 14.9662 10.2676 14.8739 10.5 14.8739C10.6151 14.8739 10.729 14.8966 10.8353 14.9406C10.9416 14.9846 11.0381 15.0491 11.1195 15.1305L13.125 17.1378L17.7555 12.5055C17.9198 12.3412 18.1426 12.2489 18.375 12.2489C18.6074 12.2489 18.8302 12.3412 18.9945 12.5055C19.1588 12.6698 19.2511 12.8926 19.2511 13.125C19.2511 13.3574 19.1588 13.5802 18.9945 13.7445Z" fill="white"/>
</g>
<defs>
<clipPath id="clip0_8_778">
<rect width="28" height="28" fill="white"/>
</clipPath>
</defs>
</svg>
