<?xml version="1.0" ?><svg viewBox="0 0 32 32" xmlns="http://www.w3.org/2000/svg"><defs><style>.cls-1{fill:none;}</style></defs><title/><g data-name="Layer 2" id="Layer_2"><path d="M23,29H10.08C7.06,29,6,27.45,6,26V18H5.68a2.68,2.68,0,0,1-2-4.45l7.18-8.2a6.86,6.86,0,0,1,10.3,0l7.18,8.2a2.63,2.63,0,0,1,.43,2.87A2.66,2.66,0,0,1,26.32,18H26v8A3,3,0,0,1,23,29ZM16,5a4.86,4.86,0,0,0-3.65,1.65l-7.18,8.2A.68.68,0,0,0,5.68,16H7a1,1,0,0,1,1,1v9c0,.87,1.31,1,2.09,1H23a1,1,0,0,0,1-1V17a1,1,0,0,1,.3-.71A1,1,0,0,1,25,16h1.31a.68.68,0,0,0,.51-1.13l-7.18-8.2A4.85,4.85,0,0,0,16,5Z"/><path d="M19,29H13a1,1,0,0,1-1-1V21a4,4,0,0,1,8,0v7A1,1,0,0,1,19,29Zm-5-2h4V21a2,2,0,0,0-4,0Z"/></g><g id="frame"><rect class="cls-1" height="32" width="32"/></g></svg>