<?xml version="1.0" standalone="no"?>
<!DOCTYPE svg PUBLIC "-//W3C//DTD SVG 20010904//EN"
 "http://www.w3.org/TR/2001/REC-SVG-20010904/DTD/svg10.dtd">
<svg version="1.0" xmlns="http://www.w3.org/2000/svg"
 width="512.000000pt" height="512.000000pt" viewBox="0 0 512.000000 512.000000"
 preserveAspectRatio="xMidYMid meet">

<g transform="translate(0.000000,512.000000) scale(0.100000,-0.100000)"
fill="#000000" stroke="none">
<path d="M2330 5109 c-214 -19 -502 -86 -701 -164 -1011 -397 -1664 -1388
-1626 -2470 9 -241 36 -408 104 -640 45 -155 57 -180 99 -200 43 -20 83 -13
118 22 32 32 34 77 6 159 -33 94 -67 233 -91 371 -31 173 -34 548 -6 718 43
257 110 470 217 690 407 832 1264 1345 2190 1312 193 -7 324 -26 504 -71 1199
-304 1955 -1494 1725 -2716 -88 -466 -310 -881 -654 -1225 -192 -192 -381
-328 -620 -445 -304 -148 -606 -224 -951 -237 -626 -24 -1237 204 -1693 634
l-75 69 12 145 c27 320 128 603 310 859 135 191 361 389 568 497 l91 47 54
-45 c128 -108 274 -179 441 -214 298 -64 618 14 850 207 l61 51 65 -32 c287
-142 559 -413 718 -716 31 -60 66 -120 77 -132 45 -51 136 -32 163 33 13 32
13 41 -1 83 -21 64 -117 233 -195 344 -36 52 -124 151 -200 227 -138 138 -262
234 -402 312 -43 23 -78 47 -78 51 0 5 15 34 34 66 87 149 130 312 130 496 0
181 -28 302 -107 460 -130 261 -374 457 -661 530 -64 16 -133 26 -194 28 l-93
2 -30 -33 c-37 -42 -40 -98 -6 -138 20 -23 33 -27 117 -35 186 -19 334 -75
462 -178 355 -281 408 -791 121 -1146 -180 -222 -488 -335 -765 -281 -359 71
-615 342 -660 704 -30 236 46 462 224 659 42 47 48 84 23 133 -19 37 -43 50
-92 50 -34 0 -45 -7 -105 -70 -117 -122 -203 -288 -245 -475 -11 -46 -16 -117
-16 -210 1 -179 27 -290 109 -453 31 -62 55 -114 53 -115 -2 -2 -48 -29 -102
-61 -271 -159 -507 -392 -665 -657 -152 -252 -239 -533 -263 -844 -17 -228
-12 -242 154 -393 782 -714 1918 -873 2867 -402 732 363 1248 1059 1384 1865
166 988 -259 1981 -1089 2544 -485 329 -1077 482 -1665 430z"/>
</g>
</svg>
